<svg width="130" height="85" viewBox="0 0 130 85" fill="none" xmlns="http://www.w3.org/2000/svg">
<path fill-rule="evenodd" clip-rule="evenodd" d="M107.832 23.1109L105.721 21L104.992 21.729L107.103 23.8399L107.832 23.1109ZM107.832 24.8891L107.103 24.1601L104.992 26.271L105.721 27L107.832 24.8891ZM108.881 24.1601L110.992 26.271L110.263 27L108.152 24.8891L108.881 24.1601ZM110.992 21.729L110.263 21L108.152 23.1109L108.881 23.8399L110.992 21.729ZM16.4986 53.8516L18.3576 55.7106L17.7156 56.3526L15.8566 54.4936L16.4986 53.8516ZM19.2816 56.6346L21.1406 58.4936L20.4986 59.1356L18.6396 57.2766L19.2816 56.6346ZM21.1406 54.4936L20.4986 53.8516L18.6396 55.7106L19.2816 56.3526L21.1406 54.4936ZM16.4986 59.1356L15.8566 58.4936L17.7156 56.6346L18.3576 57.2766L16.4986 59.1356ZM9.9986 62.9936C9.80081 62.9936 9.60751 63.0522 9.44305 63.1621C9.2786 63.272 9.15039 63.4281 9.07471 63.6109C8.99902 63.7936 8.97923 63.9947 9.01782 64.1887C9.05641 64.3826 9.15165 64.5608 9.2915 64.7007C9.43136 64.8405 9.60954 64.9357 9.80353 64.9743C9.99751 65.0129 10.1986 64.9931 10.3813 64.9174C10.564 64.8418 10.7202 64.7136 10.8301 64.5491C10.94 64.3847 10.9986 64.1913 10.9986 63.9936C10.9986 63.7283 10.8932 63.474 10.7057 63.2865C10.5182 63.0989 10.2638 62.9936 9.9986 62.9936Z" fill="#696F77"/>
<rect x="51.5" y="20.5" width="27" height="51" rx="2.5" fill="white" stroke="#696F77"/>
<path d="M62 23.5H68" stroke="#696F77" stroke-linecap="round" stroke-linejoin="round"/>
</svg>
