<svg width="130" height="85" viewBox="0 0 130 85" fill="none" xmlns="http://www.w3.org/2000/svg">
<g clip-path="url(#clip0_3798_1056)">
<path fill-rule="evenodd" clip-rule="evenodd" d="M24 57.0117H103V68C103 68.5523 102.552 69 102 69H72H71H57H56H25C24.4477 69 24 68.5523 24 68V57.0117ZM56 70H25C23.8954 70 23 69.1046 23 68V57.0117V56.5117V56.0117V12C23 10.8954 23.8954 10 25 10H102C103.105 10 104 10.8954 104 12V56.0117V56.5117V57.0117V68C104 69.1046 103.105 70 102 70H72V79C72 80.1046 71.1046 81 70 81H58C56.8954 81 56 80.1046 56 79V70ZM57 70V79C57 79.5523 57.4477 80 58 80H70C70.5523 80 71 79.5523 71 79V70H57ZM24 56.0117H103V12C103 11.4477 102.552 11 102 11H25C24.4477 11 24 11.4477 24 12V56.0117Z" fill="#696F77"/>
<path d="M79.5 26C79.5 25.1716 80.1716 24.5 81 24.5H122C122.828 24.5 123.5 25.1716 123.5 26V31.037V60C123.5 60.8284 122.828 61.5 122 61.5H81C80.1716 61.5 79.5 60.8284 79.5 60V31.037V26Z" fill="white" stroke="#696F77"/>
<circle cx="84" cy="28" r="1" fill="#696F77"/>
<circle cx="88" cy="28" r="1" fill="#696F77"/>
<circle cx="92" cy="28" r="1" fill="#696F77"/>
<path d="M2.88909 13.1601L2.1601 13.8891L4.27101 16L5 15.271L2.88909 13.1601Z" fill="#696F77"/>
<path d="M4.27101 10L2.1601 12.1109L2.88909 12.8399L5 10.729L4.27101 10Z" fill="#696F77"/>
<path d="M1.11091 13.1601L-1 15.271L-0.271008 16L1.8399 13.8891L1.11091 13.1601Z" fill="#696F77"/>
<path d="M-0.271008 10L-1 10.729L1.11091 12.8399L1.8399 12.1109L-0.271008 10Z" fill="#696F77"/>
<path d="M18.9524 55.4219C18.1719 54.6407 16.9064 54.6404 16.1256 55.4213L13.6415 57.9053C12.8639 58.683 12.8595 59.9431 13.6318 60.7261L32.8503 80.2119C33.4138 80.7832 34.1826 81.1048 34.9848 81.1048L37.7474 81.1047C38.6002 81.1046 39.2813 80.3937 39.2454 79.541L39.1273 76.7326C39.0957 75.981 38.7832 75.2687 38.2517 74.7367L18.9524 55.4219Z" fill="white" stroke="#696F77"/>
<path d="M21.0591 57.7045L16.1094 62.6543" stroke="#696F77" stroke-linecap="round" stroke-linejoin="round"/>
<path d="M26.6061 81.0312H11.4844" stroke="#696F77" stroke-linecap="round" stroke-linejoin="round"/>
</g>
<defs>
<clipPath id="clip0_3798_1056">
<rect width="130" height="85" fill="white"/>
</clipPath>
</defs>
</svg>
