<svg width="130" height="85" viewBox="0 0 130 85" fill="none" xmlns="http://www.w3.org/2000/svg">
<path d="M120.994 6.85156L119.135 8.71056L119.777 9.35255L121.636 7.49356L120.994 6.85156Z" fill="#696F77"/>
<path d="M118.211 9.63457L116.352 11.4936L116.994 12.1356L118.853 10.2766L118.211 9.63457Z" fill="#696F77"/>
<path d="M116.994 6.85156L116.352 7.49356L118.211 9.35255L118.853 8.71056L116.994 6.85156Z" fill="#696F77"/>
<path d="M10.824 42.6596L10.159 43.3246L12.821 45.9866L13.486 45.3216L10.824 42.6596Z" fill="#696F77"/>
<path d="M12.821 38.0006L10.159 40.6626L10.824 41.3276L13.486 38.6656L12.821 38.0006Z" fill="#696F77"/>
<path d="M8.16205 42.6596L5.5 45.3216L6.16504 45.9866L8.82703 43.3246L8.16205 42.6596Z" fill="#696F77"/>
<path d="M6.16504 38.0006L5.5 38.6656L8.16205 41.3276L8.82703 40.6626L6.16504 38.0006Z" fill="#696F77"/>
<path d="M120.994 12.1356L121.636 11.4936L119.777 9.63457L119.135 10.2766L120.994 12.1356Z" fill="#696F77"/>
<path d="M121.05 75.1621C120.885 75.0522 120.692 74.9936 120.494 74.9936C120.229 74.9936 119.974 75.0989 119.787 75.2865C119.599 75.474 119.494 75.7283 119.494 75.9936C119.494 76.1913 119.553 76.3847 119.663 76.5491C119.772 76.7136 119.929 76.8418 120.111 76.9174C120.294 76.9931 120.495 77.0129 120.689 76.9743C120.883 76.9358 121.061 76.8405 121.201 76.7007C121.341 76.5608 121.436 76.3826 121.475 76.1887C121.513 75.9947 121.494 75.7936 121.418 75.6109C121.342 75.4281 121.214 75.272 121.05 75.1621Z" fill="#696F77"/>
<path d="M37 15C37 14.1716 37.6716 13.5 38.5 13.5H92.5C93.3284 13.5 94 14.1716 94 15V81C94 81.8284 93.3284 82.5 92.5 82.5H38.5C37.6716 82.5 37 81.8284 37 81V15Z" fill="white" stroke="#696F77"/>
<path d="M63 76C63 74.6193 64.1193 73.5 65.5 73.5C66.8807 73.5 68 74.6193 68 76C68 77.3807 66.8807 78.5 65.5 78.5C64.1193 78.5 63 77.3807 63 76Z" fill="white" stroke="#696F77"/>
<path d="M61.5 18L69.5001 18" stroke="#696F77" stroke-linecap="round" stroke-linejoin="round"/>
</svg>
