<svg width="130" height="85" viewBox="0 0 130 85" fill="none" xmlns="http://www.w3.org/2000/svg">
<path fill-rule="evenodd" clip-rule="evenodd" d="M8 75C8.19778 75 8.39112 75.0586 8.55557 75.1685C8.72002 75.2784 8.8482 75.4346 8.92389 75.6173C8.99958 75.8 9.01936 76.0011 8.98077 76.1951C8.94219 76.3891 8.84694 76.5672 8.70709 76.7071C8.56724 76.8469 8.38908 76.9422 8.1951 76.9808C8.00112 77.0194 7.80004 76.9996 7.61731 76.9239C7.43458 76.8482 7.2784 76.72 7.16852 76.5556C7.05864 76.3911 7 76.1978 7 76C7 75.7348 7.10537 75.4804 7.29291 75.2929C7.48044 75.1054 7.73478 75 8 75Z" fill="#696F77"/>
<path fill-rule="evenodd" clip-rule="evenodd" d="M24 57.0117H103V68C103 68.5523 102.552 69 102 69H72H71H57H56H25C24.4477 69 24 68.5523 24 68V57.0117ZM56 70H25C23.8954 70 23 69.1046 23 68V57.0117V56.5117V56.0117V12C23 10.8954 23.8954 10 25 10H102C103.105 10 104 10.8954 104 12V56.0117V56.5117V57.0117V68C104 69.1046 103.105 70 102 70H72V79C72 80.1046 71.1046 81 70 81H58C56.8954 81 56 80.1046 56 79V70ZM57 70V79C57 79.5523 57.4477 80 58 80H70C70.5523 80 71 79.5523 71 79V70H57ZM24 56.0117H103V12C103 11.4477 102.552 11 102 11H25C24.4477 11 24 11.4477 24 12V56.0117Z" fill="#696F77"/>
<path d="M54.1609 10.5C49.1323 12.0115 37.0537 23.5993 38.0592 28.6375C39.2464 34.5867 49.1308 33.1719 55.6718 31.6605C60.1114 30.6346 72.7791 24.607 76.3012 29.6452C79.8233 34.6834 62.2128 50.3018 76.3012 49.798C90.3896 49.2942 81.8359 58.363 87.8738 59.3706C92.7041 60.1767 103.304 57.0194 108 55.34" stroke="#696F77"/>
<path d="M35.5611 21.2556L39.1846 34.7786L38.7016 34.908" stroke="#696F77"/>
<rect x="38.3486" y="35.52" width="2" height="2" transform="rotate(-15 38.3486 35.52)" fill="white" stroke="#696F77"/>
<rect x="34.2079" y="20.0654" width="2" height="2" transform="rotate(-15 34.2079 20.0654)" fill="white" stroke="#696F77"/>
<circle cx="38" cy="29" r="1.5" fill="white" stroke="#696F77"/>
<path d="M79.5 26C79.5 25.1716 80.1716 24.5 81 24.5H122C122.828 24.5 123.5 25.1716 123.5 26V31.037V60C123.5 60.8284 122.828 61.5 122 61.5H81C80.1716 61.5 79.5 60.8284 79.5 60V31.037V26Z" fill="white" stroke="#696F77"/>
<circle cx="84" cy="28" r="1" fill="#696F77"/>
<circle cx="88" cy="28" r="1" fill="#696F77"/>
<circle cx="92" cy="28" r="1" fill="#696F77"/>
<path d="M122.333 9.66717L121.667 10.3333L124.334 13L125 12.3338L122.333 9.66717Z" fill="#696F77"/>
<path d="M124.334 5L121.667 7.66667L122.333 8.33283L125 5.66616L124.334 5Z" fill="#696F77"/>
<path d="M119.667 9.66717L117 12.3338L117.666 13L120.334 10.3333L119.667 9.66717Z" fill="#696F77"/>
<path d="M117.666 5L117 5.66616L119.667 8.33283L120.334 7.66667L117.666 5Z" fill="#696F77"/>
<path d="M11.8891 21.1601L11.1601 21.8891L13.271 24L14 23.271L11.8891 21.1601Z" fill="#696F77"/>
<path d="M13.271 18L11.1601 20.1109L11.8891 20.8399L14 18.729L13.271 18Z" fill="#696F77"/>
<path d="M10.1109 21.1601L8 23.271L8.72899 24L10.8399 21.8891L10.1109 21.1601Z" fill="#696F77"/>
<path d="M8.72899 18L8 18.729L10.1109 20.8399L10.8399 20.1109L8.72899 18Z" fill="#696F77"/>
</svg>
