<svg width="130" height="85" viewBox="0 0 130 85" fill="none" xmlns="http://www.w3.org/2000/svg">
<path fill-rule="evenodd" clip-rule="evenodd" d="M25.0042 61.0117H104.004V72C104.004 72.5523 103.556 73 103.004 73H73.0042H72.0042H58.0042H57.0042H26.0041C25.4519 73 25.0042 72.5523 25.0042 72V61.0117ZM57.0042 74H26.0041C24.8996 74 24.0042 73.1046 24.0042 72V61.0117V60.5117V60.0117V16C24.0042 14.8954 24.8996 14 26.0042 14H103.004C104.109 14 105.004 14.8954 105.004 16V60.0117V60.5117V61.0117V72C105.004 73.1046 104.109 74 103.004 74H73.0042V83C73.0042 84.1046 72.1087 85 71.0042 85H59.0042C57.8996 85 57.0042 84.1046 57.0042 83V74ZM58.0042 74V83C58.0042 83.5523 58.4519 84 59.0042 84H71.0042C71.5564 84 72.0042 83.5523 72.0042 83V74H58.0042ZM25.0042 60.0117H104.004V16C104.004 15.4477 103.556 15 103.004 15H26.0042C25.4519 15 25.0042 15.4477 25.0042 16V60.0117Z" fill="#696F77"/>
<path d="M3.89324 17.1601L3.16425 17.8891L5.27516 20L6.00415 19.271L3.89324 17.1601Z" fill="#696F77"/>
<path d="M5.27516 14L3.16425 16.1109L3.89324 16.8399L6.00415 14.729L5.27516 14Z" fill="#696F77"/>
<path d="M2.11506 17.1601L0.00415039 19.271L0.733142 20L2.84405 17.8891L2.11506 17.1601Z" fill="#696F77"/>
<path d="M0.733142 14L0.00415039 14.729L2.11506 16.8399L2.84405 16.1109L0.733142 14Z" fill="#696F77"/>
<path d="M125.551 46.1622C125.387 46.0523 125.194 45.9937 124.996 45.9937C124.731 45.9937 124.476 46.099 124.289 46.2866C124.101 46.4741 123.996 46.7284 123.996 46.9937C123.996 47.1914 124.054 47.3848 124.164 47.5492C124.274 47.7137 124.43 47.8419 124.613 47.9175C124.796 47.9932 124.997 48.013 125.191 47.9744C125.385 47.9358 125.563 47.8406 125.703 47.7007C125.843 47.5609 125.938 47.3827 125.977 47.1888C126.015 46.9948 125.995 46.7937 125.92 46.611C125.844 46.4282 125.716 46.2721 125.551 46.1622Z" fill="#696F77"/>
</svg>
