<svg width="130" height="85" viewBox="0 0 130 85" fill="none" xmlns="http://www.w3.org/2000/svg">
<path fill-rule="evenodd" clip-rule="evenodd" d="M23.5 85C23.3022 85 23.1089 84.9414 22.9444 84.8315C22.78 84.7216 22.6518 84.5654 22.5761 84.3827C22.5004 84.2 22.4806 83.9989 22.5192 83.8049C22.5578 83.6109 22.653 83.4328 22.7929 83.2929C22.9327 83.153 23.1109 83.0578 23.3049 83.0192C23.4989 82.9806 23.7 83.0004 23.8827 83.0761C24.0654 83.1518 24.2216 83.28 24.3315 83.4444C24.4413 83.6089 24.5 83.8022 24.5 84C24.5 84.2652 24.3946 84.5196 24.2071 84.7071C24.0196 84.8946 23.7652 85 23.5 85Z" fill="#696F77"/>
<path d="M117.389 9.16011L116.66 9.88911L118.771 12L119.5 11.271L117.389 9.16011Z" fill="#696F77"/>
<path d="M118.771 6L116.66 8.11089L117.389 8.83989L119.5 6.72899L118.771 6Z" fill="#696F77"/>
<path d="M115.611 9.16011L113.5 11.271L114.229 12L116.34 9.88911L115.611 9.16011Z" fill="#696F77"/>
<path d="M114.229 6L113.5 6.72899L115.611 8.83989L116.34 8.11089L114.229 6Z" fill="#696F77"/>
<path d="M5.38909 69.1601L4.6601 69.8891L7.77101 73L8.5 72.271L5.38909 69.1601Z" fill="#696F77"/>
<path d="M7.77101 65L4.6601 68.1109L5.38909 68.8399L8.5 65.729L7.77101 65Z" fill="#696F77"/>
<path d="M3.61091 69.1601L0.5 72.271L1.22899 73L4.3399 69.8891L3.61091 69.1601Z" fill="#696F77"/>
<path d="M1.22899 65L0.5 65.729L3.61091 68.8399L4.3399 68.1109L1.22899 65Z" fill="#696F77"/>
<rect x="40" y="59.5" width="27" height="51" rx="2.5" transform="rotate(-90 40 59.5)" fill="white" stroke="#696F77"/>
<path d="M43 49L43 43" stroke="#696F77" stroke-linecap="round" stroke-linejoin="round"/>
</svg>
