<svg width="36" height="32" viewBox="0 0 36 32" fill="none" xmlns="http://www.w3.org/2000/svg">
<path fill-rule="evenodd" clip-rule="evenodd" d="M21.8181 3.11111C21.8181 1.39289 23.2284 0 24.9681 0H32.85C34.5897 0 36 1.39289 36 3.11111V28.8889C36 30.6071 34.5897 32 32.85 32H29.5774H23.1681H23.1138C22.2839 32 21.4874 31.6765 20.8976 31.0998L1.06725 11.7102C0.384272 11.0424 0 10.1326 0 9.18343V3.11111C0 1.39289 1.41031 0 3.15002 0H5.45458H9.42856C10.3771 0 11.2873 0.369714 11.9613 1.0288L21.8181 10.6665V3.11111ZM0 21.327C0 19.3526 2.41234 18.3587 3.833 19.7478L8.18186 24L12.4759 28.1985C13.9043 29.5952 12.9029 32 10.8929 32H2.25001C1.00736 32 0 31.0051 0 29.7778V21.327Z" fill="black"/>
</svg>
