<svg width="0" height="0" class="hidden">
  <symbol xmlns="http://www.w3.org/2000/svg" viewBox="0 0 24 24" id="check-v1">
    <path fill-rule="evenodd" clip-rule="evenodd" d="M15 8L17 8V10H15V8ZM13 10L15 10V12L13 12V10ZM11 14V12H13V14H11ZM9 14H11V16H9L9 14ZM9 14H7V12H9V14Z"></path>
  </symbol>
  <symbol xmlns="http://www.w3.org/2000/svg" viewBox="0 0 10 10" id="check-v2">
    <path d="M10 0L0 0L0 10L10 10L10 0Z"></path>
  </symbol>
  <symbol xmlns="http://www.w3.org/2000/svg" viewBox="0 0 24 24" id="slash">
    <path fill-rule="evenodd" clip-rule="evenodd" d="M15 7L17 7V9H15V7ZM13 9L15 9V11L13 11V9ZM11 13V11H13V13H11ZM9 15L9 13H11V15H9ZM9 15V17H7L7 15H9Z"></path>
  </symbol>
  <symbol xmlns="http://www.w3.org/2000/svg" viewBox="0 0 14 14" id="close">
    <path fill-rule="evenodd" clip-rule="evenodd" d="M14 0L12 0V2L10 2V4L8 4L8 6H6V4L4 4L4 2L2 2L2 0L0 0L0 2L2 2V4H4V6H6V8H4L4 10H2V12H0L0 14H2L2 12H4V10L6 10L6 8H8V10H10V12H12V14H14V12H12V10H10V8L8 8V6L10 6L10 4H12V2L14 2V0Z"></path>
  </symbol>
  <symbol xmlns="http://www.w3.org/2000/svg" viewBox="0 0 24 24" id="info">
    <path fill-rule="evenodd" clip-rule="evenodd" d="M7 1L9 1L11 1L13 1L15 1V3L13 3H11L9 3L7 3V1ZM21 11L21 13V15V17H23V15V13L23 11V9H21V11ZM3 13V11L3 9H1L1 11L1 13L1 15H3L3 13ZM9 21H11V23H9V21ZM13 21H15V23H13V21Z"></path>
    <path d="M13 14H11V16H13V14Z"></path>
    <path d="M13 16H11V18H13V16Z"></path>
    <path d="M13 12H11V14H13V12Z"></path>
    <path d="M13 10H11V12H13V10Z"></path>
    <path d="M13 6H11V8H13V6Z"></path>
    <path d="M17 1L15 1V3H17V1Z"></path>
    <path d="M21 17H19V19H21V17Z"></path>
    <path d="M19 19H17V21H19V19Z"></path>
    <path d="M17 21H15V23H17V21Z"></path>
    <path d="M19 3L17 3V5H19V3Z"></path>
    <path d="M21 5H19V7H21V5Z"></path>
    <path d="M23 7H21V9H23V7Z"></path>
    <path d="M3 15H1L1 17H3L3 15Z"></path>
    <path d="M5 17H3L3 19H5V17Z"></path>
    <path d="M7 19H5V21H7V19Z"></path>
    <path d="M9 21H7V23H9V21Z"></path>
    <path d="M7 3L5 3V5H7V3Z"></path>
    <path d="M5 5H3L3 7H5V5Z"></path>
    <path d="M3 7H1L1 9H3L3 7Z"></path>
    <path d="M13 21H11V23H13V21Z"></path>
  </symbol>
  <symbol xmlns="http://www.w3.org/2000/svg" viewBox="0 0 50 50" id="logo">
    <path fill-rule="evenodd" clip-rule="evenodd" d="M29.3181 11.325C29.3181 9.48865 30.8254 8 32.6847 8H41.1084C42.9677 8 44.475 9.48865 44.475 11.325V38.875C44.475 40.7113 42.9677 42.2 41.1084 42.2H37.6109H30.7609H30.7029C29.8159 42.2 28.9647 41.8543 28.3344 41.2379L7.14062 20.5153C6.41069 19.8016 6 18.8292 6 17.8148V11.325C6 9.48865 7.50727 8 9.36658 8H11.8296H16.0768C17.0905 8 18.0633 8.39513 18.7837 9.09953L29.3181 19.3998V11.325ZM6 30.7933C6 28.6831 8.57818 27.6209 10.0965 29.1055L14.7444 33.65L19.3336 38.1372C20.8602 39.6299 19.79 42.2 17.6418 42.2H8.4047C7.07662 42.2 6 41.1367 6 39.825V30.7933Z"></path>
  </symbol>
  <symbol xmlns="http://www.w3.org/2000/svg" viewBox="0 0 24 15" id="behance">
    <path fill-rule="evenodd" clip-rule="evenodd" d="M9.8738 6.78055C10.3718 6.53003 10.7484 6.25101 11.0064 5.94948C11.4654 5.40644 11.6919 4.68638 11.6919 3.79381C11.6919 2.92524 11.4654 2.18268 11.0124 1.56013C10.2563 0.546044 8.97673 0.0270022 7.16758 0H0V14.6307H6.68304C7.4361 14.6307 8.13366 14.5662 8.77871 14.4342C9.42376 14.3007 9.98181 14.0561 10.4543 13.6991C10.8744 13.3886 11.2254 13.0031 11.5044 12.5485C11.9455 11.8615 12.166 11.0829 12.166 10.2158C12.166 9.37576 11.9725 8.6602 11.5884 8.07215C11.1999 7.48411 10.6299 7.05357 9.8738 6.78055ZM2.95674 2.54121H6.185C6.89456 2.54121 7.47961 2.61771 7.93864 2.76922C8.46969 2.98974 8.73521 3.43828 8.73521 4.12233C8.73521 4.73588 8.53269 5.16492 8.13216 5.40644C7.72863 5.64796 7.20508 5.76947 6.56303 5.76947H2.95674V2.54121ZM6.55853 12.0925C7.20208 12.0925 7.70462 12.007 8.06165 11.8345C8.71271 11.5134 9.03673 10.9074 9.03673 10.0073C9.03673 9.24375 8.72321 8.72171 8.09316 8.43668C7.73913 8.27917 7.24409 8.19516 6.60804 8.19066H2.95674V12.0925H6.55853ZM15.3372 0.682555H21.6933V2.5037H15.3372V0.682555ZM23.9014 7.86963C23.7694 7.02206 23.4784 6.2765 23.0254 5.63295C22.5288 4.90389 21.8988 4.36984 21.1322 4.03232C20.3687 3.69329 19.5091 3.52378 18.552 3.52528C16.9454 3.52528 15.6403 4.02782 14.6307 5.0254C13.6241 6.02598 13.1201 7.4646 13.1201 9.33975C13.1201 11.3394 13.6766 12.784 14.7957 13.6706C15.9103 14.5587 17.1974 15.0012 18.6585 15.0012C20.4272 15.0012 21.8028 14.4747 22.7853 13.4246C23.4139 12.7615 23.7694 12.109 23.8474 11.4684H20.9192C20.7497 11.7849 20.5532 12.0325 20.3281 12.2125C19.9201 12.5425 19.3891 12.7075 18.738 12.7075C18.1185 12.7075 17.5934 12.571 17.1554 12.2995C16.4323 11.8645 16.0543 11.1024 16.0063 10.0178H23.9974C24.0094 9.08323 23.9794 8.36467 23.9014 7.86963ZM16.0783 8.15015C16.1833 7.44659 16.4383 6.88855 16.8434 6.47602C17.2484 6.06498 17.8214 5.85797 18.555 5.85647C19.2316 5.85647 19.7971 6.04998 20.2576 6.43851C20.7122 6.83004 20.9687 7.39859 21.0212 8.15015H16.0783Z"></path>
  </symbol>
  <symbol xmlns="http://www.w3.org/2000/svg" viewBox="0 0 18 18" id="dribbble">
    <path fill-rule="evenodd" clip-rule="evenodd" d="M9.00003 0C4.02919 0 0 4.02975 0 9.00003C0 13.9703 4.02919 18 9.00003 18C13.9709 18 18.0001 13.9703 18.0001 8.99997C18.0001 4.02969 13.9708 0 9.00003 0ZM14.9057 4.35599C15.8731 5.58452 16.4655 7.11896 16.5121 8.78902C14.4928 8.43523 12.7513 8.42454 11.2466 8.66304C11.0559 8.2254 10.8596 7.80017 10.6582 7.38842C12.2721 6.72469 13.7194 5.7566 14.9057 4.35599ZM9.9748 6.05479C11.48 5.45229 12.8104 4.56693 13.8701 3.28051C12.5572 2.16054 10.8574 1.48161 8.99948 1.48223C8.38913 1.48223 7.79683 1.55644 7.22814 1.6954C8.02014 2.78157 9.01122 4.26942 9.9748 6.05479ZM5.76846 2.21343C6.53401 3.23546 7.55271 4.71596 8.54892 6.53117C6.43731 7.11111 4.07535 7.2675 1.68471 7.27423C2.21232 5.03776 3.73891 3.18375 5.76846 2.21343ZM1.4889 8.75634L1.48273 8.99935C1.48273 10.8906 2.18587 12.6202 3.34236 13.9415C4.68278 11.9772 6.63862 9.91289 9.77565 8.99317C9.60463 8.6112 9.4297 8.23998 9.25194 7.87827C6.86748 8.58086 4.20801 8.75634 1.52938 8.75634H1.4889ZM4.4381 14.9687C5.7071 13.0573 7.4756 11.1662 10.3534 10.3719C11.0256 12.0943 11.574 13.9741 11.8643 15.9485C10.9811 16.3153 10.0142 16.5178 9.00059 16.5178C7.28548 16.5178 5.70377 15.9401 4.4381 14.9687ZM11.8282 10.0795C12.4352 11.6747 12.9392 13.3954 13.2469 15.1993C14.8866 14.0726 16.0577 12.3125 16.4081 10.2752C14.6554 9.95292 13.1434 9.91239 11.8282 10.0795Z"></path>
  </symbol>
  <symbol xmlns="http://www.w3.org/2000/svg" viewBox="0 0 9 18" id="facebook">
    <path fill-rule="evenodd" clip-rule="evenodd" d="M7.3575 2.98875H9.00075V0.12675C8.71725 0.08775 7.74225 0 6.60675 0C4.2375 0 2.6145 1.49025 2.6145 4.22925V6.75H0V9.9495H2.6145V18H5.82V9.95025H8.32875L8.727 6.75075H5.81925V4.5465C5.82 3.62175 6.069 2.98875 7.3575 2.98875Z"></path>
  </symbol>
  <symbol xmlns="http://www.w3.org/2000/svg" viewBox="0 0 18 18" id="instagram">
    <path fill-rule="evenodd" clip-rule="evenodd" d="M17.5325 3.10838C17.754 3.67814 17.9087 4.33566 17.9509 5.29208C17.993 6.25206 17.9966 6.55796 17.9966 9.00181C17.9966 11.4457 17.986 11.7515 17.9439 12.7115C17.9017 13.6679 17.7469 14.322 17.5255 14.8952C17.0578 16.1048 16.1014 17.0612 14.8917 17.5289C14.322 17.7505 13.6645 17.9051 12.7081 17.9473C11.7481 17.9896 11.4422 18 8.99837 18C6.55452 18 6.24849 17.9896 5.28864 17.9473C4.33209 17.9051 3.67814 17.7505 3.10495 17.5289C2.50717 17.3039 1.96214 16.9487 1.51202 16.4916C1.0549 16.0415 0.699832 15.5 0.471271 14.8952C0.249714 14.3255 0.0949135 13.6679 0.052745 12.7115C0.0105765 11.7515 0 11.4457 0 9.00181C0 6.55796 0.0105765 6.25206 0.0563162 5.28851C0.0984847 4.33209 0.253148 3.67814 0.474705 3.10495C0.699832 2.50717 1.0549 1.96214 1.51202 1.51202C1.96214 1.05133 2.5036 0.699695 3.10852 0.471133C3.67814 0.249714 4.33566 0.0949135 5.29208 0.052745C6.25206 0.0105765 6.55796 0 9.00181 0C11.4457 0 11.7515 0.0105765 12.7151 0.0563162C13.6715 0.0984847 14.3256 0.253148 14.8987 0.474705C15.4964 0.699695 16.0415 1.0549 16.4916 1.51202C16.9523 1.96214 17.3039 2.5036 17.5325 3.10838ZM16.0205 14.3115C16.1435 13.995 16.2912 13.5203 16.3299 12.6412C16.3721 11.6918 16.3827 11.4105 16.3827 9.00881C16.3827 6.60713 16.3721 6.32239 16.3299 5.37298C16.2912 4.49733 16.1435 4.01919 16.0205 3.70272C15.8762 3.31236 15.6477 2.96072 15.3488 2.66884C15.0605 2.36995 14.7053 2.14139 14.315 1.9973C13.9986 1.87423 13.5239 1.72657 12.6448 1.68784C11.6988 1.64567 11.4141 1.63509 9.00881 1.63509C6.60727 1.63509 6.32239 1.64567 5.37298 1.68784C4.49747 1.72657 4.01919 1.87423 3.70272 1.9973C3.31236 2.14139 2.96072 2.36995 2.66898 2.66884C2.36652 2.95729 2.13796 3.31236 1.99373 3.70272C1.87066 4.01919 1.723 4.4939 1.6844 5.37298C1.6421 6.31882 1.63166 6.60713 1.63166 9.00881C1.63166 11.4105 1.6421 11.6954 1.6844 12.6448C1.723 13.5203 1.87066 13.9986 1.99373 14.315C2.13796 14.7053 2.36652 15.0569 2.66541 15.3488C2.95372 15.6477 3.30892 15.8762 3.69915 16.0205C4.01562 16.1435 4.49033 16.2912 5.36941 16.3298C6.31538 16.3721 6.6037 16.3825 9.00538 16.3825C11.4071 16.3825 11.6918 16.3721 12.6412 16.3298C13.5169 16.2912 13.995 16.1435 14.3115 16.0205C15.0956 15.718 15.718 15.0956 16.0205 14.3115ZM4.37783 9.00181C4.37783 6.44889 6.44903 4.37783 9.00181 4.37783C11.5547 4.37783 13.6258 6.44889 13.6258 9.00181C13.6258 11.5547 11.5547 13.6258 9.00181 13.6258C6.44903 13.6258 4.37783 11.5547 4.37783 9.00181ZM6.00235 9.00181C6.00235 10.6581 7.3457 12.0013 9.00181 12.0013C10.6581 12.0013 12.0013 10.6581 12.0013 9.00181C12.0013 7.34556 10.6581 6.00235 9.00181 6.00235C7.3457 6.00235 6.00235 7.34556 6.00235 9.00181ZM13.8086 5.2745C14.4049 5.2745 14.8882 4.79114 14.8882 4.19501C14.8882 3.59874 14.4049 3.11552 13.8086 3.11552C13.2125 3.11552 12.7291 3.59874 12.7291 4.19501C12.7291 4.79114 13.2125 5.2745 13.8086 5.2745Z"></path>
  </symbol>
  <symbol fill="none" xmlns="http://www.w3.org/2000/svg" viewBox="0 0 130 85" id="01">
    <path fill-rule="evenodd" clip-rule="evenodd" d="M8 75C8.19778 75 8.39112 75.0586 8.55557 75.1685C8.72002 75.2784 8.8482 75.4346 8.92389 75.6173C8.99958 75.8 9.01936 76.0011 8.98077 76.1951C8.94219 76.3891 8.84694 76.5672 8.70709 76.7071C8.56724 76.8469 8.38908 76.9422 8.1951 76.9808C8.00112 77.0194 7.80004 76.9996 7.61731 76.9239C7.43458 76.8482 7.2784 76.72 7.16852 76.5556C7.05864 76.3911 7 76.1978 7 76C7 75.7348 7.10537 75.4804 7.29291 75.2929C7.48044 75.1054 7.73478 75 8 75Z" fill="currentColor"></path>
    <path fill-rule="evenodd" clip-rule="evenodd" d="M24 57.0117H103V68C103 68.5523 102.552 69 102 69H72H71H57H56H25C24.4477 69 24 68.5523 24 68V57.0117ZM56 70H25C23.8954 70 23 69.1046 23 68V57.0117V56.5117V56.0117V12C23 10.8954 23.8954 10 25 10H102C103.105 10 104 10.8954 104 12V56.0117V56.5117V57.0117V68C104 69.1046 103.105 70 102 70H72V79C72 80.1046 71.1046 81 70 81H58C56.8954 81 56 80.1046 56 79V70ZM57 70V79C57 79.5523 57.4477 80 58 80H70C70.5523 80 71 79.5523 71 79V70H57ZM24 56.0117H103V12C103 11.4477 102.552 11 102 11H25C24.4477 11 24 11.4477 24 12V56.0117Z" fill="currentColor"></path>
    <path d="M54.1609 10.5C49.1323 12.0115 37.0537 23.5993 38.0592 28.6375C39.2464 34.5867 49.1308 33.1719 55.6718 31.6605C60.1114 30.6346 72.7791 24.607 76.3012 29.6452C79.8233 34.6834 62.2128 50.3018 76.3012 49.798C90.3896 49.2942 81.8359 58.363 87.8738 59.3706C92.7041 60.1767 103.304 57.0194 108 55.34" stroke="currentColor"></path>
    <path d="M35.5611 21.2556L39.1846 34.7786L38.7016 34.908" stroke="currentColor"></path>
    <rect x="38.3486" y="35.52" width="2" height="2" transform="rotate(-15 38.3486 35.52)" fill="white" stroke="currentColor"></rect>
    <rect x="34.2079" y="20.0654" width="2" height="2" transform="rotate(-15 34.2079 20.0654)" fill="white" stroke="currentColor"></rect>
    <circle cx="38" cy="29" r="1.5" fill="white" stroke="currentColor"></circle>
    <path d="M81 24.5H122C122.828 24.5 123.5 25.1716 123.5 26V60C123.5 60.8284 122.828 61.5 122 61.5H81C80.1716 61.5 79.5 60.8284 79.5 60V26C79.5 25.1716 80.1716 24.5 81 24.5Z" fill="white" stroke="currentColor"></path>
    <path d="M79.5 31H123.5" stroke="currentColor"></path>
    <circle cx="84" cy="28" r="1" fill="currentColor"></circle>
    <circle cx="88" cy="28" r="1" fill="currentColor"></circle>
    <circle cx="92" cy="28" r="1" fill="currentColor"></circle>
    <path d="M122.333 9.66717L121.667 10.3333L124.334 13L125 12.3338L122.333 9.66717Z" fill="currentColor"></path>
    <path d="M124.334 5L121.667 7.66667L122.333 8.33283L125 5.66616L124.334 5Z" fill="currentColor"></path>
    <path d="M119.667 9.66717L117 12.3338L117.666 13L120.334 10.3333L119.667 9.66717Z" fill="currentColor"></path>
    <path d="M117.666 5L117 5.66616L119.667 8.33283L120.334 7.66667L117.666 5Z" fill="currentColor"></path>
    <path d="M11.8891 21.1601L11.1601 21.8891L13.271 24L14 23.271L11.8891 21.1601Z" fill="currentColor"></path>
    <path d="M13.271 18L11.1601 20.1109L11.8891 20.8399L14 18.729L13.271 18Z" fill="currentColor"></path>
    <path d="M10.1109 21.1601L8 23.271L8.72899 24L10.8399 21.8891L10.1109 21.1601Z" fill="currentColor"></path>
    <path d="M8.72899 18L8 18.729L10.1109 20.8399L10.8399 20.1109L8.72899 18Z" fill="currentColor"></path>
  </symbol>
  <symbol fill="none" xmlns="http://www.w3.org/2000/svg" viewBox="0 0 130 85" id="02">
    <path fill-rule="evenodd" clip-rule="evenodd" d="M24 57.0117H103V68C103 68.5523 102.552 69 102 69H72H71H57H56H25C24.4477 69 24 68.5523 24 68V57.0117ZM56 70H25C23.8954 70 23 69.1046 23 68V57.0117V56.5117V56.0117V12C23 10.8954 23.8954 10 25 10H102C103.105 10 104 10.8954 104 12V56.0117V56.5117V57.0117V68C104 69.1046 103.105 70 102 70H72V79C72 80.1046 71.1046 81 70 81H58C56.8954 81 56 80.1046 56 79V70ZM57 70V79C57 79.5523 57.4477 80 58 80H70C70.5523 80 71 79.5523 71 79V70H57ZM24 56.0117H103V12C103 11.4477 102.552 11 102 11H25C24.4477 11 24 11.4477 24 12V56.0117Z" fill="currentColor"></path>
    <path d="M81 24.5H122C122.828 24.5 123.5 25.1716 123.5 26V60C123.5 60.8284 122.828 61.5 122 61.5H81C80.1716 61.5 79.5 60.8284 79.5 60V26C79.5 25.1716 80.1716 24.5 81 24.5Z" fill="white" stroke="currentColor"></path>
    <path d="M79.5 31H123.5" stroke="currentColor"></path>
    <circle cx="84" cy="28" r="1" fill="currentColor"></circle>
    <circle cx="88" cy="28" r="1" fill="currentColor"></circle>
    <circle cx="92" cy="28" r="1" fill="currentColor"></circle>
    <path d="M3.88909 13.1601L3.1601 13.8891L5.27101 16L6 15.271L3.88909 13.1601Z" fill="currentColor"></path>
    <path d="M5.27101 10L3.1601 12.1109L3.88909 12.8399L6 10.729L5.27101 10Z" fill="currentColor"></path>
    <path d="M2.11091 13.1601L0 15.271L0.728992 16L2.8399 13.8891L2.11091 13.1601Z" fill="currentColor"></path>
    <path d="M0.728992 10L0 10.729L2.11091 12.8399L2.8399 12.1109L0.728992 10Z" fill="currentColor"></path>
    <path d="M18.9524 55.4219C18.1719 54.6407 16.9064 54.6404 16.1256 55.4213L13.6415 57.9053C12.8639 58.683 12.8595 59.9431 13.6318 60.7261L32.8503 80.2119C33.4138 80.7832 34.1826 81.1048 34.9848 81.1048L37.7474 81.1047C38.6002 81.1046 39.2813 80.3937 39.2454 79.541L39.1273 76.7326C39.0957 75.981 38.7832 75.2687 38.2517 74.7367L18.9524 55.4219Z" fill="white" stroke="currentColor"></path>
    <path d="M21.0591 57.7045L16.1094 62.6543" stroke="currentColor" stroke-linecap="round" stroke-linejoin="round"></path>
    <path d="M26.6061 81.0312H11.4844" stroke="currentColor" stroke-linecap="round" stroke-linejoin="round"></path>
  </symbol>
  <symbol fill="none" xmlns="http://www.w3.org/2000/svg" viewBox="0 0 130 85" id="03">
    <path fill-rule="evenodd" clip-rule="evenodd" d="M25.0042 61.0117H104.004V72C104.004 72.5523 103.556 73 103.004 73H73.0042H72.0042H58.0042H57.0042H26.0041C25.4519 73 25.0042 72.5523 25.0042 72V61.0117ZM57.0042 74H26.0041C24.8996 74 24.0042 73.1046 24.0042 72V61.0117V60.5117V60.0117V16C24.0042 14.8954 24.8996 14 26.0042 14H103.004C104.109 14 105.004 14.8954 105.004 16V60.0117V60.5117V61.0117V72C105.004 73.1046 104.109 74 103.004 74H73.0042V83C73.0042 84.1046 72.1087 85 71.0042 85H59.0042C57.8996 85 57.0042 84.1046 57.0042 83V74ZM58.0042 74V83C58.0042 83.5523 58.4519 84 59.0042 84H71.0042C71.5564 84 72.0042 83.5523 72.0042 83V74H58.0042ZM25.0042 60.0117H104.004V16C104.004 15.4477 103.556 15 103.004 15H26.0042C25.4519 15 25.0042 15.4477 25.0042 16V60.0117Z" fill="currentColor"></path>
    <path d="M3.89324 17.1601L3.16425 17.8891L5.27516 20L6.00415 19.271L3.89324 17.1601Z" fill="currentColor"></path>
    <path d="M5.27516 14L3.16425 16.1109L3.89324 16.8399L6.00415 14.729L5.27516 14Z" fill="currentColor"></path>
    <path d="M2.11506 17.1601L0.00415039 19.271L0.733142 20L2.84405 17.8891L2.11506 17.1601Z" fill="currentColor"></path>
    <path d="M0.733142 14L0.00415039 14.729L2.11506 16.8399L2.84405 16.1109L0.733142 14Z" fill="currentColor"></path>
    <path d="M125.551 46.1622C125.387 46.0523 125.194 45.9937 124.996 45.9937C124.731 45.9937 124.476 46.099 124.289 46.2866C124.101 46.4741 123.996 46.7284 123.996 46.9937C123.996 47.1914 124.054 47.3848 124.164 47.5492C124.274 47.7137 124.43 47.8419 124.613 47.9175C124.796 47.9932 124.997 48.013 125.191 47.9744C125.385 47.9358 125.563 47.8406 125.703 47.7007C125.843 47.5609 125.938 47.3827 125.977 47.1888C126.015 46.9948 125.995 46.7937 125.92 46.611C125.844 46.4282 125.716 46.2721 125.551 46.1622Z" fill="currentColor"></path>
  </symbol>
  <symbol fill="none" xmlns="http://www.w3.org/2000/svg" viewBox="0 0 130 85" id="04">
    <path d="M120.994 6.85156L119.135 8.71056L119.777 9.35255L121.636 7.49356L120.994 6.85156Z" fill="currentColor"></path>
    <path d="M118.211 9.63457L116.352 11.4936L116.994 12.1356L118.853 10.2766L118.211 9.63457Z" fill="currentColor"></path>
    <path d="M116.994 6.85156L116.352 7.49356L118.211 9.35255L118.853 8.71056L116.994 6.85156Z" fill="currentColor"></path>
    <path d="M10.824 42.6596L10.159 43.3246L12.821 45.9866L13.486 45.3216L10.824 42.6596Z" fill="currentColor"></path>
    <path d="M12.821 38.0006L10.159 40.6626L10.824 41.3276L13.486 38.6656L12.821 38.0006Z" fill="currentColor"></path>
    <path d="M8.16205 42.6596L5.5 45.3216L6.16504 45.9866L8.82703 43.3246L8.16205 42.6596Z" fill="currentColor"></path>
    <path d="M6.16504 38.0006L5.5 38.6656L8.16205 41.3276L8.82703 40.6626L6.16504 38.0006Z" fill="currentColor"></path>
    <path d="M120.994 12.1356L121.636 11.4936L119.777 9.63457L119.135 10.2766L120.994 12.1356Z" fill="currentColor"></path>
    <path d="M121.05 75.1621C120.885 75.0522 120.692 74.9936 120.494 74.9936C120.229 74.9936 119.974 75.0989 119.787 75.2865C119.599 75.474 119.494 75.7283 119.494 75.9936C119.494 76.1913 119.553 76.3847 119.663 76.5491C119.772 76.7136 119.929 76.8418 120.111 76.9174C120.294 76.9931 120.495 77.0129 120.689 76.9743C120.883 76.9358 121.061 76.8405 121.201 76.7007C121.341 76.5608 121.436 76.3826 121.475 76.1887C121.513 75.9947 121.494 75.7936 121.418 75.6109C121.342 75.4281 121.214 75.272 121.05 75.1621Z" fill="currentColor"></path>
    <path d="M37 15C37 14.1716 37.6716 13.5 38.5 13.5H92.5C93.3284 13.5 94 14.1716 94 15V81C94 81.8284 93.3284 82.5 92.5 82.5H38.5C37.6716 82.5 37 81.8284 37 81V15Z" fill="white" stroke="currentColor"></path>
    <path d="M63 76C63 74.6193 64.1193 73.5 65.5 73.5C66.8807 73.5 68 74.6193 68 76C68 77.3807 66.8807 78.5 65.5 78.5C64.1193 78.5 63 77.3807 63 76Z" fill="white" stroke="currentColor"></path>
    <path d="M61.5 18L69.5001 18" stroke="currentColor" stroke-linecap="round" stroke-linejoin="round"></path>
  </symbol>
  <symbol fill="none" xmlns="http://www.w3.org/2000/svg" viewBox="0 0 130 85" id="05">
    <path fill-rule="evenodd" clip-rule="evenodd" d="M23.5 85C23.3022 85 23.1089 84.9414 22.9444 84.8315C22.78 84.7216 22.6518 84.5654 22.5761 84.3827C22.5004 84.2 22.4806 83.9989 22.5192 83.8049C22.5578 83.6109 22.653 83.4328 22.7929 83.2929C22.9327 83.153 23.1109 83.0578 23.3049 83.0192C23.4989 82.9806 23.7 83.0004 23.8827 83.0761C24.0654 83.1518 24.2216 83.28 24.3315 83.4444C24.4413 83.6089 24.5 83.8022 24.5 84C24.5 84.2652 24.3946 84.5196 24.2071 84.7071C24.0196 84.8946 23.7652 85 23.5 85Z" fill="currentColor"></path>
    <path d="M117.389 9.16011L116.66 9.88911L118.771 12L119.5 11.271L117.389 9.16011Z" fill="currentColor"></path>
    <path d="M118.771 6L116.66 8.11089L117.389 8.83989L119.5 6.72899L118.771 6Z" fill="currentColor"></path>
    <path d="M115.611 9.16011L113.5 11.271L114.229 12L116.34 9.88911L115.611 9.16011Z" fill="currentColor"></path>
    <path d="M114.229 6L113.5 6.72899L115.611 8.83989L116.34 8.11089L114.229 6Z" fill="currentColor"></path>
    <path d="M5.38909 69.1601L4.6601 69.8891L7.77101 73L8.5 72.271L5.38909 69.1601Z" fill="currentColor"></path>
    <path d="M7.77101 65L4.6601 68.1109L5.38909 68.8399L8.5 65.729L7.77101 65Z" fill="currentColor"></path>
    <path d="M3.61091 69.1601L0.5 72.271L1.22899 73L4.3399 69.8891L3.61091 69.1601Z" fill="currentColor"></path>
    <path d="M1.22899 65L0.5 65.729L3.61091 68.8399L4.3399 68.1109L1.22899 65Z" fill="currentColor"></path>
    <rect x="40" y="59.5" width="27" height="51" rx="2.5" transform="rotate(-90 40 59.5)" fill="white" stroke="currentColor"></rect>
    <path d="M43 49L43 43" stroke="currentColor" stroke-linecap="round" stroke-linejoin="round"></path>
  </symbol>
  <symbol fill="none" xmlns="http://www.w3.org/2000/svg" viewBox="0 0 130 85" id="06">
    <path fill-rule="evenodd" clip-rule="evenodd" d="M107.832 23.1109L105.721 21L104.992 21.729L107.103 23.8399L107.832 23.1109ZM107.832 24.8891L107.103 24.1601L104.992 26.271L105.721 27L107.832 24.8891ZM108.881 24.1601L110.992 26.271L110.263 27L108.152 24.8891L108.881 24.1601ZM110.992 21.729L110.263 21L108.152 23.1109L108.881 23.8399L110.992 21.729ZM16.4986 53.8516L18.3576 55.7106L17.7156 56.3526L15.8566 54.4936L16.4986 53.8516ZM19.2816 56.6346L21.1406 58.4936L20.4986 59.1356L18.6396 57.2766L19.2816 56.6346ZM21.1406 54.4936L20.4986 53.8516L18.6396 55.7106L19.2816 56.3526L21.1406 54.4936ZM16.4986 59.1356L15.8566 58.4936L17.7156 56.6346L18.3576 57.2766L16.4986 59.1356ZM9.9986 62.9936C9.80081 62.9936 9.60751 63.0522 9.44305 63.1621C9.2786 63.272 9.15039 63.4281 9.07471 63.6109C8.99902 63.7936 8.97923 63.9947 9.01782 64.1887C9.05641 64.3826 9.15165 64.5608 9.2915 64.7007C9.43136 64.8405 9.60954 64.9357 9.80353 64.9743C9.99751 65.0129 10.1986 64.9931 10.3813 64.9174C10.564 64.8418 10.7202 64.7136 10.8301 64.5491C10.94 64.3847 10.9986 64.1913 10.9986 63.9936C10.9986 63.7283 10.8932 63.474 10.7057 63.2865C10.5182 63.0989 10.2638 62.9936 9.9986 62.9936Z" fill="currentColor"></path>
    <rect x="51.5" y="20.5" width="27" height="51" rx="2.5" fill="white" stroke="currentColor"></rect>
    <path d="M62 23.5H68" stroke="currentColor" stroke-linecap="round" stroke-linejoin="round"></path>
  </symbol>
  <symbol fill="none" xmlns="http://www.w3.org/2000/svg" viewBox="0 0 120 53" id="input-file">
    <path d="M0.663399 51.1421L2.58426 49.2831L1.92087 48.6411L7.68739e-06 50.5001L0.663399 51.1421Z" fill="currentColor"></path>
    <path d="M3.53901 48.3591L5.45987 46.5001L4.79649 45.8581L2.87563 47.7171L3.53901 48.3591Z" fill="currentColor"></path>
    <path d="M4.79649 51.1421L5.45987 50.5001L3.53901 48.6411L2.87563 49.2831L4.79649 51.1421Z" fill="currentColor"></path>
    <path d="M114.499 25.3341L115.186 24.6691L112.435 22.0071L111.748 22.6721L114.499 25.3341Z" fill="currentColor"></path>
    <path d="M112.435 29.9931L115.186 27.3311L114.499 26.6661L111.748 29.3281L112.435 29.9931Z" fill="currentColor"></path>
    <path d="M117.249 25.3341L120 22.6721L119.313 22.0071L116.562 24.6691L117.249 25.3341Z" fill="currentColor"></path>
    <path d="M119.313 29.9931L120 29.3281L117.249 26.6661L116.562 27.3311L119.313 29.9931Z" fill="currentColor"></path>
    <path d="M0.663399 45.8581L8.04871e-06 46.5001L1.92087 48.3591L2.58426 47.7171L0.663399 45.8581Z" fill="currentColor"></path>
    <path d="M10.9387 2.83156C11.1086 2.94145 11.3084 3.00008 11.5127 3.00008C11.7868 3.00008 12.0496 2.89471 12.2434 2.70717C12.4371 2.51964 12.546 2.2653 12.546 2.00008C12.546 1.8023 12.4854 1.60896 12.3719 1.44451C12.2584 1.28006 12.097 1.15188 11.9082 1.07619C11.7194 1.00051 11.5116 0.980723 11.3112 1.01931C11.1108 1.05789 10.9266 1.15314 10.7821 1.29299C10.6376 1.43284 10.5392 1.611 10.4993 1.80498C10.4595 1.99896 10.4799 2.20004 10.5581 2.38277C10.6363 2.5655 10.7688 2.72168 10.9387 2.83156Z" fill="currentColor"></path>
    <path d="M70.5684 23V7C70.5684 5.89543 69.6729 5 68.5684 5H50.0684M70.5684 23H45.5684V7C45.5684 5.89543 46.4638 5 47.5684 5H50.0684M70.5684 23H75.0684V3C75.0684 1.89543 74.1729 1 73.0684 1H52.0684C50.9638 1 50.0684 1.89543 50.0684 3V5M51.0684 12H65.0684M51.0684 16H65.0684" stroke="currentColor"></path>
    <path d="M41.2534 25.3634L32.0684 52H71.5036C73.6368 52 75.535 50.6466 76.2304 48.63L84.1539 25.652C84.6017 24.3532 83.6369 23 82.2631 23H44.5684C43.0723 23 41.7411 23.9491 41.2534 25.3634Z" fill="white"></path>
    <path d="M32.0684 52L41.2534 25.3634C41.7411 23.9491 43.0723 23 44.5684 23V23H82.2631C83.6369 23 84.6017 24.3532 84.1539 25.652L76.2304 48.63C75.535 50.6466 73.6368 52 71.5036 52H32.0684ZM32.0684 52V17.5C32.0684 15.2909 33.8592 13.5 36.0684 13.5H45.1023" stroke="currentColor"></path>
  </symbol>
  <symbol xmlns="http://www.w3.org/2000/svg" viewBox="0 0 24 25" id="error">
    <path fill-rule="evenodd" clip-rule="evenodd" d="M13 1.5L11 1.5V3.5L10 3.5V5.5H9V7.5L11 7.5L11 5.5H12H14V3.5H13V1.5ZM18 11.5H16V13.5H17V15.5H18V17.5L19 17.5V19.5H21V17.5H20V15.5H19V13.5L18 13.5L18 11.5ZM6 11.5L8 11.5V13.5L7 13.5L7 15.5H6V17.5H5L5 19.5H4V21.5H5V23.5H3L3 21.5H2V19.5H3V17.5H4L4 15.5H5V13.5H6V11.5ZM7 21.5V23.5H9V21.5H7ZM11 21.5V23.5H13V21.5H11ZM15 23.5V21.5H17V23.5H15Z"></path>
    <path d="M22 19.5H20V21.5H22V19.5Z"></path>
    <path d="M13 15.5H11V17.5H13V15.5Z"></path>
    <path d="M13 17.5H11V19.5H13V17.5Z"></path>
    <path d="M13 13.5H11V15.5H13V13.5Z"></path>
    <path d="M13 9.5H11V11.5H13V9.5Z"></path>
    <path d="M15 5.5H13V7.5H15V5.5Z"></path>
    <path d="M15 21.5H13V23.5H15V21.5Z"></path>
    <path d="M19 21.5H17V23.5H19V21.5Z"></path>
    <path d="M21 21.5H19V23.5H21V21.5Z"></path>
    <path d="M23 21.5H21V23.5H23V21.5Z"></path>
    <path d="M16 7.5H14V9.5H16V7.5Z"></path>
    <path d="M17 9.5H15V11.5H17V9.5Z"></path>
    <path d="M7 21.5H5V23.5H7V21.5Z"></path>
    <path d="M3 21.5H1L1 23.5H3L3 21.5Z"></path>
    <path d="M10 7.5H8V9.5H10V7.5Z"></path>
    <path d="M9 9.5H7V11.5H9V9.5Z"></path>
    <path d="M11 21.5H9V23.5H11V21.5Z"></path>
  </symbol>
</svg>
